<svg xmlns="http://www.w3.org/2000/svg" viewBox="0 0 1600 520" role="img" aria-label="World Cup fantasy stadium">
  <defs>
    <linearGradient id="sky" x1="0" x2="1" y1="0" y2="1">
      <stop offset="0" stop-color="#123B7A"/>
      <stop offset="0.55" stop-color="#0D1117"/>
      <stop offset="1" stop-color="#0F5132"/>
    </linearGradient>
    <radialGradient id="light" cx="50%" cy="10%" r="60%">
      <stop offset="0" stop-color="#FFD700" stop-opacity=".45"/>
      <stop offset="1" stop-color="#FFD700" stop-opacity="0"/>
    </radialGradient>
  </defs>
  <rect width="1600" height="520" fill="url(#sky)"/>
  <rect width="1600" height="520" fill="url(#light)"/>
  <path d="M0 380 C300 300 520 300 800 360 C1080 420 1320 400 1600 320 L1600 520 L0 520 Z" fill="#0b2f22"/>
  <path d="M120 435 C420 360 930 360 1320 435" fill="none" stroke="#fff" stroke-opacity=".5" stroke-width="5"/>
  <rect x="560" y="390" width="480" height="105" rx="4" fill="#136F43" stroke="#fff" stroke-opacity=".6" stroke-width="3"/>
  <circle cx="800" cy="442" r="42" fill="none" stroke="#fff" stroke-opacity=".6" stroke-width="3"/>
  <g opacity=".85">
    <circle cx="308" cy="128" r="58" fill="#FFD700"/>
    <path d="M308 80 L323 118 L364 118 L331 142 L343 181 L308 158 L273 181 L285 142 L252 118 L293 118 Z" fill="#123B7A"/>
  </g>
  <g fill="#fff" opacity=".24">
    <rect x="90" y="95" width="72" height="12"/><rect x="220" y="70" width="96" height="12"/><rect x="1260" y="88" width="120" height="12"/><rect x="1400" y="130" width="90" height="12"/>
  </g>
</svg>
